HIERARCHY
ROOT Hips
{
	OFFSET 0.000000 121.760803 0.000000
	CHANNELS 6 Xposition Yposition Zposition Xrotation Yrotation Zrotation 
	JOINT Spine
	{
		OFFSET 0.072000 7.257294 -0.789700
		CHANNELS 3 Xrotation Yrotation Zrotation
		JOINT Spine1
		{
			OFFSET 0.000000 12.508769 -0.658067
			CHANNELS 3 Xrotation Yrotation Zrotation
			JOINT Spine1_split
			{
				OFFSET 0.000000 12.508769 -0.658067
				CHANNELS 3 Xrotation Yrotation Zrotation
				JOINT Spine2
				{
					OFFSET 0.000000 12.508769 -0.658067
					CHANNELS 3 Xrotation Yrotation Zrotation
					JOINT Neck
					{
						OFFSET 0.000000 14.033295 7.520400
						CHANNELS 3 Xrotation Yrotation Zrotation
						JOINT Head
						{
							OFFSET 0.000000 8.198502 5.703100
							CHANNELS 3 Xrotation Yrotation Zrotation
							JOINT HeadTop_End
							{
								OFFSET 0.000000 17.760803 13.332701
								CHANNELS 3 Xrotation Yrotation Zrotation
								End Site
								{
									OFFSET 0.000000 0.000000 0.000000
								}
							}
						}
					}
					JOINT LeftShoulder
					{
						OFFSET 6.292450 5.785301 -0.669000
						CHANNELS 3 Xrotation Yrotation Zrotation
						JOINT LeftShoulder_split
						{
							OFFSET 6.292450 5.785301 -0.669000
							CHANNELS 3 Xrotation Yrotation Zrotation
							JOINT LeftArm
							{
								OFFSET 13.907140 -6.093903 1.965100
								CHANNELS 3 Xrotation Yrotation Zrotation
								JOINT LeftForeArm
								{
									OFFSET 34.140198 0.000000 0.000000
									CHANNELS 3 Xrotation Yrotation Zrotation
									JOINT LeftHand
									{
										OFFSET 40.960209 0.000000 0.000000
										CHANNELS 3 Xrotation Yrotation Zrotation
										JOINT LeftHandThumb1
										{
											OFFSET 10.006996 -7.170425 9.573125
											CHANNELS 3 Xrotation Yrotation Zrotation
											JOINT LeftHandThumb2
											{
												OFFSET 1.835007 -1.059448 1.059443
												CHANNELS 3 Xrotation Yrotation Zrotation
												JOINT LeftHandThumb3
												{
													OFFSET 2.112267 -1.219513 1.219518
													CHANNELS 3 Xrotation Yrotation Zrotation
													JOINT LeftHandThumb4
													{
														OFFSET 4.843811 -2.796570 2.796576
														CHANNELS 3 Xrotation Yrotation Zrotation
														End Site
														{
															OFFSET 0.000000 0.000000 0.000000
														}
													}
												}
											}
										}
										JOINT LeftHandIndex1
										{
											OFFSET 18.389847 -0.922348 4.596882
											CHANNELS 3 Xrotation Yrotation Zrotation
											JOINT LeftHandIndex2
											{
												OFFSET 4.711273 0.000000 0.000000
												CHANNELS 3 Xrotation Yrotation Zrotation
												JOINT LeftHandIndex3
												{
													OFFSET 2.886131 0.000000 0.000000
													CHANNELS 3 Xrotation Yrotation Zrotation
													JOINT LeftHandIndex4
													{
														OFFSET 6.145912 0.000000 0.000000
														CHANNELS 3 Xrotation Yrotation Zrotation
														End Site
														{
															OFFSET 0.000000 0.000000 0.000000
														}
													}
												}
											}
										}
										JOINT LeftHandMiddle1
										{
											OFFSET 18.013008 0.000000 0.000000
											CHANNELS 3 Xrotation Yrotation Zrotation
											JOINT LeftHandMiddle2
											{
												OFFSET 4.946693 0.000000 0.000000
												CHANNELS 3 Xrotation Yrotation Zrotation
												JOINT LeftHandMiddle3
												{
													OFFSET 3.342232 0.000000 0.000000
													CHANNELS 3 Xrotation Yrotation Zrotation
													JOINT LeftHandMiddle4
													{
														OFFSET 4.461754 0.000000 0.000000
														CHANNELS 3 Xrotation Yrotation Zrotation
														End Site
														{
															OFFSET 0.000000 0.000000 0.000000
														}
													}
												}
											}
										}
										JOINT LeftHandRing1
										{
											OFFSET 15.849892 -0.102921 -4.126150
											CHANNELS 3 Xrotation Yrotation Zrotation
											JOINT LeftHandRing2
											{
												OFFSET 3.527054 0.000000 0.000000
												CHANNELS 3 Xrotation Yrotation Zrotation
												JOINT LeftHandRing3
												{
													OFFSET 2.961098 0.000000 0.000000
													CHANNELS 3 Xrotation Yrotation Zrotation
													JOINT LeftHandRing4
													{
														OFFSET 4.927200 0.000000 0.000000
														CHANNELS 3 Xrotation Yrotation Zrotation
														End Site
														{
															OFFSET 0.000000 0.000000 0.000000
														}
													}
												}
											}
										}
										JOINT LeftHandPinky1
										{
											OFFSET 12.791824 -0.832031 -6.799156
											CHANNELS 3 Xrotation Yrotation Zrotation
											JOINT LeftHandPinky2
											{
												OFFSET 3.327133 0.000000 0.000000
												CHANNELS 3 Xrotation Yrotation Zrotation
												JOINT LeftHandPinky3
												{
													OFFSET 3.014900 0.000000 0.000000
													CHANNELS 3 Xrotation Yrotation Zrotation
													JOINT LeftHandPinky4
													{
														OFFSET 5.847786 0.000000 0.000000
														CHANNELS 3 Xrotation Yrotation Zrotation
														End Site
														{
															OFFSET 0.000000 0.000000 0.000000
														}
													}
												}
											}
										}
									}
								}
							}
						}
					}
					JOINT RightShoulder
					{
						OFFSET -6.292450 5.785301 -0.669000
						CHANNELS 3 Xrotation Yrotation Zrotation
						JOINT RightShoulder_split
						{
							OFFSET -6.292450 5.785301 -0.669000
							CHANNELS 3 Xrotation Yrotation Zrotation
							JOINT RightArm
							{
								OFFSET -13.907140 -6.093903 1.965100
								CHANNELS 3 Xrotation Yrotation Zrotation
								JOINT RightForeArm
								{
									OFFSET -34.140198 0.000000 0.000000
									CHANNELS 3 Xrotation Yrotation Zrotation
									JOINT RightHand
									{
										OFFSET -40.960209 0.000000 0.000000
										CHANNELS 3 Xrotation Yrotation Zrotation
										JOINT RightHandThumb1
										{
											OFFSET -10.007050 -7.170456 9.573117
											CHANNELS 3 Xrotation Yrotation Zrotation
											JOINT RightHandThumb2
											{
												OFFSET -1.835007 -1.059448 1.059443
												CHANNELS 3 Xrotation Yrotation Zrotation
												JOINT RightHandThumb3
												{
													OFFSET -2.112267 -1.219513 1.219518
													CHANNELS 3 Xrotation Yrotation Zrotation
													JOINT RightHandThumb4
													{
														OFFSET -4.843834 -2.796585 2.796590
														CHANNELS 3 Xrotation Yrotation Zrotation
														End Site
														{
															OFFSET 0.000000 0.000000 0.000000
														}
													}
												}
											}
										}
										JOINT RightHandIndex1
										{
											OFFSET -18.389870 -0.922424 4.596786
											CHANNELS 3 Xrotation Yrotation Zrotation
											JOINT RightHandIndex2
											{
												OFFSET -4.711273 0.000000 0.000000
												CHANNELS 3 Xrotation Yrotation Zrotation
												JOINT RightHandIndex3
												{
													OFFSET -2.886131 0.000000 0.000000
													CHANNELS 3 Xrotation Yrotation Zrotation
													JOINT RightHandIndex4
													{
														OFFSET -6.145920 0.000000 0.000000
														CHANNELS 3 Xrotation Yrotation Zrotation
														End Site
														{
															OFFSET 0.000000 0.000000 0.000000
														}
													}
												}
											}
										}
										JOINT RightHandMiddle1
										{
											OFFSET -18.013008 0.000000 0.000000
											CHANNELS 3 Xrotation Yrotation Zrotation
											JOINT RightHandMiddle2
											{
												OFFSET -4.946693 0.000000 0.000000
												CHANNELS 3 Xrotation Yrotation Zrotation
												JOINT RightHandMiddle3
												{
													OFFSET -3.342232 0.000000 0.000000
													CHANNELS 3 Xrotation Yrotation Zrotation
													JOINT RightHandMiddle4
													{
														OFFSET -4.461754 0.000000 0.000000
														CHANNELS 3 Xrotation Yrotation Zrotation
														End Site
														{
															OFFSET 0.000000 0.000000 0.000000
														}
													}
												}
											}
										}
										JOINT RightHandRing1
										{
											OFFSET -15.849876 -0.102936 -4.126237
											CHANNELS 3 Xrotation Yrotation Zrotation
											JOINT RightHandRing2
											{
												OFFSET -3.527054 0.000000 0.000000
												CHANNELS 3 Xrotation Yrotation Zrotation
												JOINT RightHandRing3
												{
													OFFSET -2.961098 0.000000 0.000000
													CHANNELS 3 Xrotation Yrotation Zrotation
													JOINT RightHandRing4
													{
														OFFSET -4.927200 0.000000 0.000000
														CHANNELS 3 Xrotation Yrotation Zrotation
														End Site
														{
															OFFSET 0.000000 0.000000 0.000000
														}
													}
												}
											}
										}
										JOINT RightHandPinky1
										{
											OFFSET -12.791786 -0.832077 -6.799222
											CHANNELS 3 Xrotation Yrotation Zrotation
											JOINT RightHandPinky2
											{
												OFFSET -3.327133 0.000000 0.000000
												CHANNELS 3 Xrotation Yrotation Zrotation
												JOINT RightHandPinky3
												{
													OFFSET -3.014900 0.000000 0.000000
													CHANNELS 3 Xrotation Yrotation Zrotation
													JOINT RightHandPinky4
													{
														OFFSET -5.847786 0.000000 0.000000
														CHANNELS 3 Xrotation Yrotation Zrotation
														End Site
														{
															OFFSET 0.000000 0.000000 0.000000
														}
													}
												}
											}
										}
									}
								}
							}
						}
					}
				}
			}
		}
	}
	JOINT LeftUpLeg
	{
		OFFSET 13.026900 -6.336304 -1.092800
		CHANNELS 3 Xrotation Yrotation Zrotation
		JOINT LeftLeg
		{
			OFFSET 0.524474 -46.096886 9.782700
			CHANNELS 3 Xrotation Yrotation Zrotation
			JOINT LeftFoot
			{
				OFFSET -0.524474 -53.427422 -12.948200
				CHANNELS 3 Xrotation Yrotation Zrotation
				JOINT LeftToeBase
				{
					OFFSET 0.192200 -14.009700 16.364100
					CHANNELS 3 Xrotation Yrotation Zrotation
					JOINT LeftToe_End
					{
						OFFSET -1.784700 -0.561700 9.474800
						CHANNELS 3 Xrotation Yrotation Zrotation
						End Site
						{
							OFFSET 0.000000 0.000000 0.000000
						}
					}
				}
			}
		}
	}
	JOINT RightUpLeg
	{
		OFFSET -12.883000 -6.336304 -1.092800
		CHANNELS 3 Xrotation Yrotation Zrotation
		JOINT RightLeg
		{
			OFFSET -0.524587 -46.096825 9.782800
			CHANNELS 3 Xrotation Yrotation Zrotation
			JOINT RightFoot
			{
				OFFSET 0.524587 -53.427383 -12.948300
				CHANNELS 3 Xrotation Yrotation Zrotation
				JOINT RightToeBase
				{
					OFFSET -0.192200 -14.009700 16.364100
					CHANNELS 3 Xrotation Yrotation Zrotation
					JOINT RightToe_End
					{
						OFFSET 1.784700 -0.561700 9.474800
						CHANNELS 3 Xrotation Yrotation Zrotation
						End Site
						{
							OFFSET 0.000000 0.000000 0.000000
						}
					}
				}
			}
		}
	}
}
MOTION
Frames: 5
Frame Time: 0.016667
-1.154971 102.120049 0.589149 12.386131 -56.029818 11.652634 11.725890 1.420180 -3.080264 -7.573172 6.733738 -2.520092 0.000000 0.000000 0.000000 0.220140 5.397600 -4.595491 -12.580312 9.083975 1.899286 -4.773442 33.430750 5.660078 -0.000000 -0.000000 0.000000 -31.809704 13.410707 5.488759 0.000000 0.000000 0.000000 38.429516 -24.730790 -35.179193 0.000033 -63.060848 0.000024 -30.857562 -7.137407 36.647858 -1.721985 5.255662 -13.188785 20.563174 52.534660 0.189408 -40.349739 66.790118 65.646690 -0.000004 -0.000001 0.000001 12.956304 -4.115565 -90.449709 8.952196 4.964060 -122.051000 5.912113 5.850764 -90.598962 0.000001 0.000002 0.000001 9.405890 8.323710 -88.069060 9.453617 4.613532 -128.051717 6.049455 5.847721 -91.946552 -0.000002 -0.000002 -0.000001 6.580860 8.180117 -91.968087 8.173842 5.371728 -113.426035 3.188193 5.211875 -62.887696 0.000000 0.000001 -0.000000 -3.227046 20.112021 -75.571699 5.936828 5.850453 -90.841379 5.609459 5.846086 -87.629128 0.000002 0.000001 -0.000002 0.882299 7.689505 10.202001 0.000000 0.000000 0.000000 7.550374 1.963475 57.853758 0.000022 75.685190 -0.000016 35.320851 10.055744 5.680944 -3.341849 -3.276462 13.774184 20.875175 -54.536069 -0.016326 -51.849636 -71.995098 -77.305222 -0.000001 0.000003 -0.000000 11.836820 5.289182 89.687426 7.123254 -3.951852 122.001631 4.705692 -4.656928 90.597808 0.000000 -0.000004 -0.000000 8.171029 -7.103216 87.309024 7.522350 -3.673027 127.998442 4.814877 -4.654508 91.942802 0.000002 0.000000 0.000001 4.801476 -6.930777 91.181332 6.503993 -4.276057 113.386010 2.539794 -4.148945 62.932216 -0.000004 0.000003 -0.000004 -4.344475 -18.765267 74.899199 4.725354 -4.656662 90.839802 4.465104 -4.653220 87.633636 -0.000001 0.000003 -0.000004 -44.553498 7.273002 27.485962 40.150499 -9.799198 -9.737052 -3.701253 -1.108752 -4.443234 0.612373 0.000017 -0.000007 -0.000000 0.000001 -0.000000 -31.676819 -9.584436 -20.593649 48.254580 8.274080 -1.107829 -30.749969 -4.588073 11.808693 9.011157 0.000049 -0.000001 0.000000 -0.000001 -0.000000 
-1.188873 102.135223 0.580194 12.340277 -56.029169 11.593862 11.725913 1.420330 -3.081037 -7.573174 6.733734 -2.520089 0.000000 0.000000 0.000000 0.220135 5.397603 -4.595490 -12.569274 9.762726 2.145932 -4.477373 32.927871 5.264198 0.000000 -0.000000 -0.000000 -31.777810 12.952634 5.310875 0.000000 0.000000 0.000000 38.682903 -24.912975 -34.934553 -0.000039 -62.511647 -0.000026 -31.157520 -7.391293 36.475252 -1.721957 5.255659 -13.188777 20.563179 52.534639 0.189386 -40.349800 66.790118 65.646744 0.000001 0.000003 0.000000 12.956311 -4.115581 -90.449709 8.952197 4.964051 -122.050973 5.912126 5.850737 -90.598935 -0.000001 -0.000001 0.000001 9.405899 8.323713 -88.069074 9.453614 4.613528 -128.051717 6.049468 5.847694 -91.946552 0.000003 0.000004 0.000002 6.580871 8.180090 -91.968101 8.173819 5.371725 -113.426028 3.188198 5.211874 -62.887717 0.000001 -0.000003 0.000000 -3.227050 20.112015 -75.571699 5.936840 5.850442 -90.841400 5.609447 5.846091 -87.629100 -0.000000 -0.000002 0.000000 1.018008 7.684533 10.077995 0.000000 0.000000 0.000000 7.270288 2.953153 57.421066 0.000128 75.186149 -0.000119 34.670949 9.864180 5.516734 -3.341838 -3.276460 13.774161 20.875184 -54.536065 -0.016322 -51.849612 -71.995064 -77.305201 0.000001 0.000002 0.000001 11.836814 5.289183 89.687405 7.123255 -3.951871 122.001631 4.705711 -4.656922 90.597801 -0.000001 0.000002 0.000001 8.171040 -7.103217 87.309010 7.522351 -3.673036 127.998469 4.814889 -4.654503 91.942809 -0.000000 -0.000005 -0.000002 4.801480 -6.930780 91.181332 6.504006 -4.276072 113.385990 2.539804 -4.148956 62.932202 0.000004 0.000001 -0.000000 -4.344463 -18.765255 74.899219 4.725347 -4.656671 90.839781 4.465103 -4.653202 87.633649 -0.000000 0.000001 -0.000000 -44.503149 7.265580 27.529928 40.121983 -9.751035 -9.746180 -3.694999 -1.177159 -4.463806 0.612360 -0.000025 0.000002 -0.000000 -0.000000 -0.000000 -31.612342 -9.617800 -20.556673 48.226002 8.274040 -1.107795 -30.760959 -4.589492 11.790214 9.011154 0.000019 -0.000002 -0.000000 0.000000 -0.000000 
-1.232398 102.135078 0.573756 12.301714 -55.974903 11.543721 11.725968 1.420872 -3.082885 -7.573167 6.733734 -2.520090 0.000000 0.000000 0.000000 0.220138 5.397586 -4.595492 -12.608600 10.491375 2.412570 -4.224774 32.405751 4.896689 -0.000000 0.000000 0.000000 -31.754075 12.465680 5.128835 0.000000 0.000000 0.000000 39.012299 -25.126461 -34.726990 0.000010 -61.838791 0.000003 -31.459623 -7.671471 36.216170 -1.721943 5.255646 -13.188779 20.563164 52.534622 0.189399 -40.349776 66.790118 65.646710 -0.000000 -0.000001 0.000001 12.956313 -4.115586 -90.449716 8.952192 4.964064 -122.050973 5.912113 5.850744 -90.598962 0.000001 0.000002 -0.000005 9.405917 8.323690 -88.069074 9.453590 4.613511 -128.051731 6.049440 5.847707 -91.946538 0.000000 -0.000002 -0.000002 6.580882 8.180105 -91.968108 8.173829 5.371733 -113.426028 3.188192 5.211890 -62.887717 0.000000 -0.000001 -0.000000 -3.227030 20.112003 -75.571692 5.936844 5.850425 -90.841414 5.609418 5.846092 -87.629114 -0.000000 0.000000 -0.000002 1.163714 7.679722 9.947278 0.000000 0.000000 0.000000 6.979114 3.931150 56.951746 -0.000023 74.671740 0.000026 33.974570 9.691009 5.366338 -3.341831 -3.276471 13.774157 20.875204 -54.536052 -0.016295 -51.849574 -71.995043 -77.305174 0.000000 -0.000002 -0.000002 11.836827 5.289174 89.687433 7.123269 -3.951873 122.001631 4.705719 -4.656913 90.597794 -0.000001 -0.000000 -0.000003 8.171025 -7.103218 87.309010 7.522368 -3.673044 127.998455 4.814891 -4.654501 91.942829 -0.000001 0.000002 0.000002 4.801478 -6.930787 91.181318 6.504000 -4.276066 113.385990 2.539805 -4.148955 62.932202 0.000002 -0.000000 0.000001 -4.344467 -18.765260 74.899233 4.725347 -4.656674 90.839781 4.465097 -4.653223 87.633649 0.000002 0.000002 -0.000004 -44.495278 7.252915 27.561645 40.108872 -9.706863 -9.755372 -3.680402 -1.287162 -4.477183 0.612366 0.000014 0.000001 -0.000000 -0.000001 -0.000000 -31.549470 -9.648532 -20.524015 48.225203 8.273290 -1.107918 -30.803159 -4.641370 11.760863 9.011145 -0.000010 0.000006 0.000000 0.000000 -0.000000 
-1.271285 102.147743 0.570821 12.268456 -55.957599 11.490929 11.725971 1.421320 -3.083255 -7.573173 6.733743 -2.520091 0.000000 0.000000 0.000000 0.220139 5.397587 -4.595490 -12.694469 11.267585 2.689841 -3.974851 31.886892 4.534252 0.000000 0.000000 -0.000000 -31.738356 11.953792 4.944353 0.000000 0.000000 0.000000 39.461578 -25.312637 -34.536865 0.000004 -61.081023 -0.000013 -31.790033 -7.989012 35.931805 -1.721957 5.255651 -13.188793 20.563184 52.534639 0.189383 -40.349763 66.790111 65.646710 -0.000000 -0.000002 0.000000 12.956320 -4.115574 -90.449729 8.952182 4.964052 -122.051000 5.912107 5.850743 -90.598942 0.000001 -0.000003 0.000001 9.405893 8.323696 -88.069081 9.453616 4.613526 -128.051731 6.049449 5.847704 -91.946538 -0.000002 -0.000002 -0.000001 6.580877 8.180098 -91.968115 8.173833 5.371725 -113.426028 3.188201 5.211877 -62.887710 0.000000 -0.000000 -0.000000 -3.227027 20.112008 -75.571720 5.936848 5.850431 -90.841414 5.609415 5.846093 -87.629107 -0.000000 -0.000003 0.000000 1.316088 7.674889 9.811792 0.000000 0.000000 0.000000 6.684427 4.902606 56.464310 0.000049 74.142926 -0.000032 33.251079 9.531763 5.218446 -3.341844 -3.276472 13.774164 20.875177 -54.536055 -0.016321 -51.849629 -71.995071 -77.305215 0.000000 -0.000000 0.000002 11.836810 5.289180 89.687412 7.123245 -3.951859 122.001631 4.705710 -4.656903 90.597808 0.000000 0.000004 0.000000 8.171042 -7.103222 87.309010 7.522334 -3.673034 127.998442 4.814897 -4.654507 91.942836 0.000000 -0.000002 0.000000 4.801469 -6.930780 91.181318 6.503987 -4.276070 113.386003 2.539799 -4.148957 62.932202 0.000002 0.000002 -0.000001 -4.344472 -18.765257 74.899233 4.725354 -4.656670 90.839767 4.465085 -4.653215 87.633642 -0.000006 0.000001 -0.000001 -44.462100 7.242792 27.605577 40.085803 -9.659569 -9.764560 -3.674701 -1.369478 -4.494164 0.612369 0.000002 -0.000001 0.000000 0.000002 -0.000000 -31.483863 -9.685268 -20.484075 48.196448 8.273438 -1.107868 -30.821884 -4.657831 11.741057 9.011155 0.000032 0.000006 -0.000000 0.000000 -0.000000 
-1.323610 102.148643 0.568976 12.244554 -55.894512 11.447844 11.726011 1.422080 -3.084616 -7.573170 6.733732 -2.520092 0.000000 0.000000 0.000000 0.220137 5.397604 -4.595491 -12.821391 12.084331 2.975462 -3.719843 31.374129 4.175468 -0.000000 0.000000 0.000000 -31.730412 11.421059 4.759069 0.000000 0.000000 0.000000 39.967012 -25.538402 -34.374249 0.000014 -60.212380 0.000021 -32.136750 -8.340108 35.571209 -1.721957 5.255646 -13.188777 20.563159 52.534639 0.189418 -40.349800 66.790125 65.646738 0.000000 -0.000002 0.000000 12.956304 -4.115600 -90.449723 8.952191 4.964056 -122.051000 5.912128 5.850724 -90.598928 -0.000001 0.000000 -0.000001 9.405909 8.323683 -88.069074 9.453592 4.613514 -128.051731 6.049464 5.847714 -91.946565 0.000000 0.000000 0.000000 6.580871 8.180103 -91.968108 8.173825 5.371728 -113.426008 3.188198 5.211886 -62.887703 0.000000 0.000004 0.000000 -3.227041 20.111997 -75.571726 5.936834 5.850441 -90.841373 5.609444 5.846087 -87.629128 0.000000 0.000001 -0.000002 1.475930 7.670212 9.670638 0.000000 0.000000 0.000000 6.392931 5.865439 55.957305 0.000024 73.593533 -0.000018 32.501896 9.387932 5.067060 -3.341828 -3.276457 13.774158 20.875162 -54.536069 -0.016342 -51.849581 -71.995043 -77.305160 0.000000 -0.000002 -0.000002 11.836831 5.289178 89.687405 7.123260 -3.951876 122.001631 4.705714 -4.656919 90.597794 -0.000002 -0.000000 -0.000002 8.171050 -7.103211 87.308997 7.522356 -3.673026 127.998469 4.814891 -4.654515 91.942843 -0.000000 -0.000002 -0.000001 4.801488 -6.930779 91.181311 6.503996 -4.276086 113.385969 2.539811 -4.148957 62.932222 -0.000001 0.000001 -0.000000 -4.344466 -18.765262 74.899199 4.725349 -4.656666 90.839781 4.465098 -4.653209 87.633656 0.000001 0.000002 -0.000002 -44.460918 7.226763 27.640322 40.073666 -9.612435 -9.773599 -3.664679 -1.488791 -4.508710 0.612362 -0.000001 0.000002 -0.000000 -0.000000 -0.000000 -31.417825 -9.722318 -20.445393 48.189580 8.272903 -1.107951 -30.869405 -4.716415 11.710129 9.011157 -0.000001 -0.000002 0.000000 0.000002 0.000000 
